# xmcd
#
# Track frame offsets: 
#        150
#        450
#        27636
#        68994
#        115850
#        152235
#        152535
#
# Disc length: 2403 seconds
#
# Revision: 0
# Processed by: cddbd v1.5.2PL0 Copyright (c) Steve Scherf et al.
# Submitted via: ExactAudioCopy v1.3
#
DISCID=4f096107
DTITLE=Matt Schofield Trio - Live At The Jazz Cafe
DYEAR=2005
DGENRE=British Blues, Electric Blues, Blues Rock
TTITLE0=All You Need
TTITLE1=Uncle Junior
TTITLE2=Lights Are Onbut Nobody's Home
TTITLE3=Travellin' South
TTITLE4=Cissy Strut
TTITLE5=On My Way
TTITLE6=It's Your Thing
EXTD=
EXTT0=
EXTT1=
EXTT2=
EXTT3=
EXTT4=
EXTT5=
EXTT6=
PLAYORDER=
